<?xml version="1.0" standalone="no"?>
<!DOCTYPE svg PUBLIC "-//W3C//DTD SVG 20010904//EN"
 "http://www.w3.org/TR/2001/REC-SVG-20010904/DTD/svg10.dtd">
<svg version="1.0" xmlns="http://www.w3.org/2000/svg"
 width="200.000000pt" height="200.000000pt" viewBox="0 0 200.000000 200.000000"
 preserveAspectRatio="xMidYMid meet">

<g transform="translate(0.000000,200.000000) scale(0.100000,-0.100000)"
fill="#009245" stroke="none">
<path d="M730 1559 c-184 -36 -337 -211 -348 -398 l-4 -76 103 -1 c82 -1 116
-6 162 -23 134 -52 214 -158 233 -311 9 -74 14 -77 38 -24 28 60 83 111 132
120 80 15 235 -12 176 -30 -20 -7 -87 -76 -156 -160 -21 -26 -53 -56 -70 -67
-31 -19 -29 -19 317 -19 221 0 364 4 392 11 55 14 122 70 146 123 23 50 24
124 4 174 -45 107 -175 166 -279 126 -10 -4 -12 8 -8 49 8 102 -49 181 -150
208 -40 11 -55 10 -101 -4 -65 -20 -67 -21 -67 -4 0 8 -14 41 -30 74 -34 68
-123 159 -188 192 -86 44 -202 59 -302 40z"/>
<path d="M265 1061 c-72 -18 -142 -78 -171 -147 -18 -43 -18 -145 0 -188 21
-50 76 -107 126 -130 42 -19 66 -21 315 -24 l270 -3 -43 22 c-59 30 -117 99
-189 226 -128 225 -188 273 -308 244z"/>
<path d="M755 816 c10 -14 19 -26 22 -26 7 0 -17 39 -28 46 -6 3 -3 -5 6 -20z"/>
<path d="M794 748 c8 -18 25 -66 37 -105 20 -63 26 -73 46 -73 14 0 26 7 29
18 3 9 14 36 25 60 10 23 16 42 13 42 -3 0 -16 -24 -29 -52 -14 -29 -25 -48
-25 -43 0 6 -4 4 -8 -2 -5 -8 -15 6 -27 40 -20 58 -63 147 -70 147 -3 0 1 -15
9 -32z"/>
</g>
</svg>
