<svg fill="none" height="88" viewBox="0 0 489 88" width="489" xmlns="http://www.w3.org/2000/svg"><path class="text-path" d="M61.09 57.42a2.17 2.17 0 01-2.27 2.28H13.24c1.6 9.76 9.89 16.84 21.39 16.84a26.38 26.38 0 0015.64-5.08c1.2-.94 2.27-.8 2.94.54l3.48 5.74a2.35 2.35 0 01-.54 3.26c-4.41 3.34-11.63 6.82-23 6.82C14 87.77 0 74.14 0 55.82c0-18 13-31.95 31.55-31.95 17.65 0 29.54 13 29.54 31.41v2.14zM13.37 50.2h35v-.26C47.46 40.85 40.64 34.7 32 34.7c-9.67 0-16.76 6.01-18.63 15.5zM68.89 56c0-18.18 14.57-32.08 33.42-32.08 9.76 0 15.77 2.67 19.92 5.35a2.28 2.28 0 01.67 3.34l-3.48 6c-.67 1.21-1.87 1.34-3.08.67A23.79 23.79 0 00103.78 36c-12.7 0-21.26 8.46-21.26 20 0 11.23 8.56 19.66 20.72 19.66a25.82 25.82 0 0013.1-3.08c1.34-.8 2.28-.53 2.81.53l3.61 6.42a2.102 2.102 0 01-.8 3.08c-3.21 2-9.22 5.21-19.65 5.21C82.52 87.77 68.89 73.87 68.89 56zm58.88 0c0-18.31 14.7-31.95 32.75-31.95s32.62 13.64 32.62 32-14.71 31.82-32.62 31.82c-17.91 0-32.75-13.73-32.75-31.87zm51.87 0c0-11.23-8.56-19.92-19.12-19.92S141.26 44.72 141.26 56a19.202 19.202 0 0032.984 13.975A19.202 19.202 0 00179.64 56zm145.97-28.65v56.94a2.006 2.006 0 01-.56 1.713 2 2 0 01-1.71.567H316a2.001 2.001 0 01-2.14-2.14l-.4-7.62c-4.67 6.28-12 11-22.45 11-16.85 0-29.68-13.63-29.68-31.95s13-31.95 29.81-31.95c9.89 0 17.24 4 21.92 9.36l.4-6a2.158 2.158 0 012.28-2.14h7.62a2 2 0 012.25 2.22zm-12.7 28.47C312.78 44.46 305.16 36 293.66 36c-10.56 0-19 8.43-19 19.79s8.43 19.79 19 19.79c11.5.03 19.25-8.4 19.25-19.76zm87.5-53.54v82a2.1 2.1 0 01-.611 1.67 2.102 2.102 0 01-1.669.61h-6.68a2.072 2.072 0 01-2.118-1.277 2.09 2.09 0 01-.152-.863l-.4-7.49c-4.82 6.29-12.3 10.83-22.73 10.83-16.85 0-29.95-13.63-29.95-31.95s12.7-31.95 29.55-31.95c9.76 0 17 4.28 21.52 9.89V2.28a2.122 2.122 0 011.38-2.156c.287-.106.594-.148.9-.124h8.68a2.117 2.117 0 012.156 1.38c.106.287.148.594.124.9zm-12.7 53.54C387.71 44.46 380 36 368.46 36c-10.56 0-19 8.43-19 19.79s8.43 19.79 19 19.79c11.54.03 19.25-8.26 19.25-19.76zm27.06 28.47l.14-56.94a1.991 1.991 0 011.259-2.152c.281-.109.582-.152.881-.128h9a2.003 2.003 0 012.059 1.396c.089.285.114.588.071.884v56.94a2.008 2.008 0 01-.533 1.672 2.002 2.002 0 01-1.647.608h-9a2.055 2.055 0 01-1.66-.607 2.05 2.05 0 01-.57-1.673zm0-72.76l.14-9.25a2.004 2.004 0 011.259-2.152c.281-.108.582-.152.881-.128h9a2.001 2.001 0 012.13 2.28v9.25a2.009 2.009 0 01-.538 1.665A2.004 2.004 0 01426 13.8h-9a2.002 2.002 0 01-2.23-2.27zm25.04 69.82c-1.34-.67-1.47-1.73-.8-3.07l3.61-6.28a1.996 1.996 0 012.276-1.075c.295.072.57.21.804.405a34.2 34.2 0 0018.84 5.48c6.82 0 11-2.54 11-7.22 0-4.28-3.21-6.42-13-8.83-12-2.94-21.93-7.62-21.93-18.58 0-10.96 9.63-18.18 24.07-18.18a42.863 42.863 0 0121.79 5.48c1.2.67 1.47 1.74.67 3.08l-3.35 6.15c-.66 1.2-1.73 1.47-3.07.66A33.551 33.551 0 00464 35c-5.75 0-9.89 2-9.89 6.54 0 4 3.74 5.62 14.17 8.16C481.25 53 489 57.42 489 68.92c0 11.23-9.63 18.85-25.27 18.85a45.4 45.4 0 01-23.92-6.42z" fill="#4A4A49"></path><path d="M209.24 26.68a2.43 2.43 0 00-2.53-1.61h-9.9c-1.6 0-2.27 1.07-1.6 2.67L200.4 39a14.798 14.798 0 0013.47 8.66h4.35l-8.98-20.98z" fill="#00C43C"></path><path class="text-path" d="M257.44 25.27h-9.36A2.93 2.93 0 00245.4 27l-17.71 42.7-2.32-5.42a14.389 14.389 0 00-13.22-8.72h-4.46l13.45 29.78a2.35 2.35 0 002.54 1.66h6.95a2.341 2.341 0 002.54-1.61L259 28c.71-1.52 0-2.73-1.56-2.73z" fill="#4A4A49"></path></svg>