<?xml version="1.0" standalone="no"?>
<!DOCTYPE svg PUBLIC "-//W3C//DTD SVG 20010904//EN"
 "http://www.w3.org/TR/2001/REC-SVG-20010904/DTD/svg10.dtd">
<svg version="1.0" xmlns="http://www.w3.org/2000/svg"
 width="136.000000pt" height="136.000000pt" viewBox="0 0 136.000000 136.000000"
 preserveAspectRatio="xMidYMid meet">

<g transform="translate(0.000000,136.000000) scale(0.100000,-0.100000)"
fill="#009838" stroke="none">
<path d="M913 1148 l-73 -21 0 -84 0 -83 -85 0 -85 0 0 -80 0 -80 85 0 85 0 0
-174 c0 -95 5 -197 10 -226 21 -108 97 -162 228 -163 43 0 92 3 110 7 l32 8 0
78 0 78 -37 -10 c-47 -13 -119 -2 -144 23 -17 17 -19 35 -19 199 l0 180 105 0
105 0 0 80 0 80 -105 0 -105 0 0 105 c0 121 8 115 -107 83z"/>
<path d="M283 1120 c-124 -29 -189 -189 -119 -295 57 -86 187 -116 271 -61 66
43 95 117 95 244 0 113 -9 122 -127 121 -49 -1 -103 -4 -120 -9z"/>
<path d="M236 670 c-70 -21 -105 -89 -106 -203 l0 -77 30 -6 c29 -6 30 -9 30
-60 0 -41 5 -59 20 -74 11 -11 25 -20 30 -20 5 0 19 9 30 20 15 15 20 33 20
75 l0 55 40 0 40 0 0 -55 c0 -42 5 -60 20 -75 25 -25 35 -25 60 0 15 15 20 33
20 75 0 52 1 55 25 55 32 0 39 28 33 126 -6 89 -23 118 -88 152 -47 23 -145
29 -204 12z"/>
</g>
</svg>
