<?xml version="1.0" standalone="no"?>
<!DOCTYPE svg PUBLIC "-//W3C//DTD SVG 20010904//EN"
 "http://www.w3.org/TR/2001/REC-SVG-20010904/DTD/svg10.dtd">
<svg version="1.0" xmlns="http://www.w3.org/2000/svg"
 width="3173.000000pt" height="664.000000pt" viewBox="0 0 3173.000000 664.000000"
 preserveAspectRatio="xMidYMid meet">

<g transform="translate(0.000000,664.000000) scale(0.100000,-0.100000)"
fill="#000000" stroke="none">
<path d="M3150 6299 c-373 -26 -756 -108 -883 -189 -39 -24 -47 -35 -47 -59 0
-38 37 -65 121 -88 52 -14 106 -17 289 -15 490 3 877 -42 1128 -129 189 -67
252 -133 252 -266 -1 -185 -140 -405 -464 -729 -204 -204 -394 -367 -651 -559
-291 -217 -437 -345 -466 -409 -16 -35 -4 -71 29 -85 105 -44 544 152 977 436
663 435 1113 932 1200 1327 23 102 17 247 -14 326 -76 199 -332 344 -722 409
-234 39 -482 49 -749 30z"/>
<path d="M4800 4319 c-384 -42 -657 -161 -804 -352 -135 -175 -123 -386 39
-666 98 -169 226 -335 602 -776 275 -324 321 -381 393 -488 156 -234 163 -404
20 -477 -162 -83 -414 -109 -1400 -145 -234 -9 -438 -24 -485 -36 -57 -15 -85
-44 -85 -90 0 -76 82 -111 352 -153 867 -134 1616 -121 2007 35 290 116 452
346 421 596 -31 240 -208 497 -821 1195 -338 385 -429 533 -429 700 0 112 51
169 189 212 158 49 301 63 854 81 458 15 527 23 574 67 68 64 -23 149 -212
197 -88 22 -330 64 -500 87 -133 18 -595 27 -715 13z"/>
<path d="M24000 3514 c-19 -2 -80 -9 -135 -15 -122 -12 -304 -52 -400 -86
-374 -135 -608 -410 -730 -857 -39 -145 -285 -1314 -285 -1357 0 -68 7 -69
316 -69 l271 0 32 153 c17 83 48 235 69 337 l39 185 761 3 762 2 -5 -22 c-7
-30 -135 -649 -135 -654 0 -2 123 -4 273 -4 248 0 275 2 303 19 17 10 36 32
42 47 19 47 280 1290 293 1394 14 112 6 288 -16 380 -55 226 -218 388 -474
470 -183 60 -292 72 -636 75 -170 2 -326 1 -345 -1z m568 -423 c146 -43 224
-101 271 -200 24 -52 26 -66 26 -196 0 -117 -5 -161 -29 -265 -33 -148 -57
-196 -111 -227 l-40 -23 -713 0 -712 0 5 23 c3 12 22 103 44 202 21 99 53 216
70 260 82 212 230 345 457 410 136 39 191 44 434 41 196 -3 235 -6 298 -25z"/>
<path d="M26276 3503 c-3 -10 -116 -540 -251 -1178 -135 -638 -248 -1168 -251
-1177 -5 -17 52 -18 1104 -18 l1110 0 5 22 c54 218 57 290 14 322 -28 21 -35
21 -763 24 -404 1 -734 4 -734 6 0 2 92 437 205 967 113 530 205 976 205 991
0 55 -15 58 -342 58 -274 0 -297 -1 -302 -17z"/>
<path d="M29065 3506 c-38 -16 -80 -65 -94 -108 -11 -33 -481 -2241 -481
-2259 0 -5 466 -9 1210 -9 666 0 1210 2 1210 5 0 3 11 57 25 121 34 155 33
198 -2 221 -25 17 -82 18 -865 21 -725 2 -838 5 -838 17 0 11 100 494 125 603
l5 22 728 0 729 0 20 23 c14 15 29 63 47 152 31 155 32 171 7 185 -13 7 -261
10 -736 10 l-717 0 5 23 c3 12 34 156 68 320 l63 297 812 0 c568 0 821 3 843
11 42 15 55 42 86 189 14 69 28 135 32 148 l5 22 -1128 0 c-916 -1 -1135 -3
-1159 -14z"/>
<path d="M1825 3496 c-451 -50 -815 -139 -915 -222 -39 -33 -39 -65 0 -98 64
-53 195 -67 575 -59 800 17 1272 -89 1386 -309 30 -58 37 -189 15 -275 -51
-195 -199 -408 -458 -659 -411 -399 -1008 -753 -1276 -758 -63 -1 -76 2 -89
19 -58 78 105 440 516 1144 136 232 192 355 194 426 2 57 -15 75 -73 75 -38 0
-59 -8 -107 -39 -79 -51 -147 -132 -344 -408 -350 -489 -601 -886 -827 -1304
-183 -337 -242 -473 -242 -554 0 -62 15 -70 124 -68 335 6 1141 309 1738 652
798 458 1308 989 1504 1566 34 98 38 121 37 205 0 111 -21 175 -86 273 -123
182 -444 320 -887 382 -157 22 -623 28 -785 11z"/>
<path d="M8710 3500 c-857 -51 -1439 -485 -1601 -1196 -32 -140 -32 -382 0
-499 101 -371 389 -587 896 -671 155 -26 578 -26 750 -1 595 90 1033 370 1258
806 183 354 214 741 83 1016 -67 139 -159 243 -292 331 -249 164 -643 241
-1094 214z m310 -405 c278 -42 426 -157 481 -375 59 -231 -32 -624 -197 -856
-149 -210 -384 -326 -719 -355 -157 -14 -337 -1 -457 32 -157 44 -270 124
-330 235 -101 186 -68 543 77 839 135 278 350 427 690 480 110 18 341 18 455
0z"/>
<path d="M10850 3472 c-20 -9 -43 -32 -53 -52 -21 -42 -273 -1236 -289 -1370
-13 -115 -5 -303 17 -385 24 -87 81 -190 143 -256 121 -131 305 -210 595 -256
144 -23 736 -26 887 -5 651 93 966 344 1129 902 34 116 291 1326 291 1369 0
16 -9 36 -21 47 -20 18 -42 19 -305 22 -156 2 -284 1 -284 -2 0 -24 -248
-1200 -291 -1376 -11 -47 -41 -128 -66 -180 -39 -81 -59 -108 -132 -180 -64
-64 -105 -95 -161 -122 -168 -83 -355 -114 -615 -105 -375 14 -540 117 -569
358 -10 84 8 200 90 579 64 295 214 1013 214 1026 0 2 -123 4 -272 4 -240 0
-277 -2 -308 -18z"/>
<path d="M14027 3476 c-53 -14 -90 -44 -106 -84 -9 -22 -61 -252 -61 -268 0
-2 585 -3 1299 -2 l1300 3 28 21 c15 12 36 34 45 50 15 26 68 244 68 280 0 12
-178 14 -1262 13 -996 0 -1273 -3 -1311 -13z"/>
<path d="M17600 3479 c-427 -25 -619 -133 -700 -394 -29 -93 -30 -201 -1 -275
65 -171 242 -299 956 -695 456 -252 494 -278 526 -351 42 -95 -23 -211 -141
-250 -51 -17 -116 -19 -810 -24 l-755 -5 -43 -25 c-58 -33 -76 -67 -101 -185
-12 -55 -23 -110 -26 -122 l-5 -23 887 0 c882 0 1026 4 1203 36 291 51 460
174 535 389 68 195 29 361 -119 510 -118 119 -233 185 -961 553 -277 140 -361
198 -395 267 -21 43 -22 51 -11 101 14 60 47 95 109 115 26 8 233 14 702 18
l665 6 36 22 c48 30 74 86 99 208 12 55 23 108 26 118 5 16 -36 17 -773 16
-428 -1 -834 -5 -903 -10z"/>
<path d="M20852 3479 c-394 -38 -711 -177 -952 -419 -204 -204 -319 -425 -387
-750 -24 -110 -27 -148 -27 -315 0 -179 2 -195 28 -280 95 -309 315 -479 721
-557 105 -20 145 -21 931 -25 669 -3 822 -2 826 9 3 7 16 65 28 128 27 133 22
158 -40 194 -34 20 -52 21 -735 27 -533 4 -710 8 -740 18 -165 54 -273 171
-322 353 -26 95 -23 321 5 455 76 354 246 614 476 727 146 72 116 69 876 76
709 6 718 7 787 49 44 27 61 66 93 203 l27 118 -756 -1 c-416 -1 -793 -5 -839
-10z"/>
<path d="M14841 2926 c-6 -7 -96 -413 -199 -902 l-188 -889 270 -3 c256 -2
271 -1 313 19 80 39 76 25 263 910 93 442 170 815 170 829 0 49 -4 50 -321 50
-240 0 -299 -3 -308 -14z"/>
</g>
</svg>
